<svg width="50" height="11" viewBox="0 0 50 11" fill="none" xmlns="http://www.w3.org/2000/svg">
<path d="M1.24951 7.27555V8.54222C1.24951 8.65889 1.34118 8.75055 1.45785 8.75055H2.72451C2.77868 8.75055 2.83284 8.72972 2.87034 8.68805L7.42034 4.14222L5.85785 2.57972L1.31201 7.12555C1.27035 7.16722 1.24951 7.21722 1.24951 7.27555ZM8.62868 2.93389C8.79118 2.77139 8.79118 2.50889 8.62868 2.34639L7.65368 1.37139C7.49118 1.20889 7.22868 1.20889 7.06618 1.37139L6.30368 2.13389L7.86618 3.69639L8.62868 2.93389Z" fill="#F0848D"/>
<path d="M17.02 1.36C17.88 1.36 18.5133 1.56 18.92 1.96C19.3333 2.35333 19.54 2.89667 19.54 3.59C19.54 3.90333 19.4967 4.20333 19.41 4.49C19.3233 4.77 19.18 5.02333 18.98 5.25C18.78 5.47 18.5133 5.64333 18.18 5.77C17.8533 5.89667 17.45 5.96 16.97 5.96H16.41V8.5H14.79V1.36H17.02ZM16.97 2.6H16.41V4.72H16.82C17.0333 4.72 17.2233 4.68333 17.39 4.61C17.5567 4.53667 17.6867 4.42 17.78 4.26C17.8733 4.1 17.92 3.89333 17.92 3.64C17.92 3.28667 17.84 3.02667 17.68 2.86C17.5267 2.68667 17.29 2.6 16.97 2.6ZM25.4177 5.76C25.4177 6.21333 25.3577 6.61667 25.2377 6.97C25.1244 7.32333 24.9577 7.62333 24.7377 7.87C24.5177 8.11 24.2477 8.29333 23.9277 8.42C23.6144 8.54 23.2611 8.6 22.8677 8.6C22.5011 8.6 22.1611 8.54 21.8477 8.42C21.5344 8.29333 21.2644 8.11 21.0377 7.87C20.8177 7.62333 20.6444 7.32333 20.5177 6.97C20.3977 6.61667 20.3377 6.21333 20.3377 5.76C20.3377 5.15333 20.4411 4.64333 20.6477 4.23C20.8544 3.81 21.1477 3.49 21.5277 3.27C21.9077 3.05 22.3644 2.94 22.8977 2.94C23.3911 2.94 23.8244 3.05 24.1977 3.27C24.5777 3.49 24.8744 3.81 25.0877 4.23C25.3077 4.64333 25.4177 5.15333 25.4177 5.76ZM21.9677 5.76C21.9677 6.12 21.9977 6.42333 22.0577 6.67C22.1244 6.91 22.2244 7.09333 22.3577 7.22C22.4977 7.34 22.6744 7.4 22.8877 7.4C23.1077 7.4 23.2811 7.34 23.4077 7.22C23.5411 7.09333 23.6377 6.91 23.6977 6.67C23.7577 6.42333 23.7877 6.12 23.7877 5.76C23.7877 5.4 23.7577 5.1 23.6977 4.86C23.6377 4.62 23.5377 4.44 23.3977 4.32C23.2644 4.2 23.0911 4.14 22.8777 4.14C22.5511 4.14 22.3177 4.27667 22.1777 4.55C22.0377 4.81667 21.9677 5.22 21.9677 5.76ZM30.2262 6.88C30.2262 7.24667 30.1462 7.56 29.9862 7.82C29.8328 8.07333 29.5962 8.26667 29.2762 8.4C28.9562 8.53333 28.5428 8.6 28.0362 8.6C27.6695 8.6 27.3495 8.57333 27.0762 8.52C26.8028 8.47333 26.5262 8.39333 26.2462 8.28V7.05C26.5528 7.18333 26.8695 7.29333 27.1962 7.38C27.5228 7.46667 27.7962 7.51 28.0162 7.51C28.2562 7.51 28.4262 7.46667 28.5262 7.38C28.6328 7.29333 28.6862 7.18 28.6862 7.04C28.6862 6.94667 28.6595 6.86333 28.6062 6.79C28.5528 6.71667 28.4462 6.63333 28.2862 6.54C28.1262 6.44667 27.8895 6.32667 27.5762 6.18C27.2695 6.03333 27.0162 5.89 26.8162 5.75C26.6228 5.60333 26.4762 5.43 26.3762 5.23C26.2828 5.02333 26.2362 4.76667 26.2362 4.46C26.2362 3.95333 26.4262 3.57333 26.8062 3.32C27.1928 3.06667 27.6995 2.94 28.3262 2.94C28.6595 2.94 28.9728 2.97333 29.2662 3.04C29.5595 3.10667 29.8628 3.21667 30.1762 3.37L29.7262 4.44C29.5528 4.36 29.3828 4.29 29.2162 4.23C29.0495 4.17 28.8895 4.12333 28.7362 4.09C28.5895 4.05667 28.4495 4.04 28.3162 4.04C28.1428 4.04 28.0095 4.07 27.9162 4.13C27.8295 4.19 27.7862 4.28 27.7862 4.4C27.7862 4.48667 27.8128 4.56667 27.8662 4.64C27.9195 4.70667 28.0228 4.78333 28.1762 4.87C28.3295 4.95 28.5528 5.05333 28.8462 5.18C29.1462 5.30667 29.3962 5.44 29.5962 5.58C29.8028 5.71333 29.9595 5.88333 30.0662 6.09C30.1728 6.29 30.2262 6.55333 30.2262 6.88ZM33.6218 7.41C33.7818 7.41 33.9285 7.39333 34.0618 7.36C34.2018 7.32667 34.3451 7.28667 34.4918 7.24V8.35C34.3251 8.41667 34.1285 8.47333 33.9018 8.52C33.6818 8.57333 33.4218 8.6 33.1218 8.6C32.8018 8.6 32.5151 8.54667 32.2618 8.44C32.0151 8.33333 31.8218 8.15 31.6818 7.89C31.5418 7.62333 31.4718 7.25667 31.4718 6.79V4.16H30.8218V3.53L31.6018 3.03L32.0418 1.88H33.0718V3.04H34.4318V4.16H33.0718V6.79C33.0718 6.99667 33.1218 7.15333 33.2218 7.26C33.3218 7.36 33.4551 7.41 33.6218 7.41ZM37.071 3.04V8.5H35.471V3.04H37.071ZM36.281 0.899999C36.5143 0.899999 36.7143 0.953333 36.881 1.06C37.0477 1.16 37.131 1.35 37.131 1.63C37.131 1.90333 37.0477 2.09333 36.881 2.2C36.7143 2.30667 36.5143 2.36 36.281 2.36C36.041 2.36 35.8377 2.30667 35.671 2.2C35.5043 2.09333 35.421 1.90333 35.421 1.63C35.421 1.35 35.5043 1.16 35.671 1.06C35.8377 0.953333 36.041 0.899999 36.281 0.899999ZM41.51 2.94C42.0567 2.94 42.4967 3.1 42.83 3.42C43.17 3.73333 43.34 4.24 43.34 4.94V8.5H41.74V5.31C41.74 4.91667 41.68 4.62333 41.56 4.43C41.4467 4.23 41.2633 4.13 41.01 4.13C40.6233 4.13 40.3633 4.28667 40.23 4.6C40.0967 4.90667 40.03 5.35 40.03 5.93V8.5H38.43V3.04H39.64L39.86 3.74H39.93C40.0433 3.55333 40.1767 3.40333 40.33 3.29C40.49 3.17 40.67 3.08333 40.87 3.03C41.07 2.97 41.2833 2.94 41.51 2.94ZM46.3302 2.94C46.6702 2.94 46.9569 3.00667 47.1902 3.14C47.4302 3.27333 47.6269 3.47333 47.7802 3.74H47.8202L47.9402 3.04H49.3102V8.51C49.3102 9.03 49.2102 9.46667 49.0102 9.82C48.8169 10.1733 48.5236 10.44 48.1302 10.62C47.7369 10.8067 47.2402 10.9 46.6402 10.9C46.2536 10.9 45.9002 10.8767 45.5802 10.83C45.2669 10.7833 44.9636 10.7 44.6702 10.58V9.39C44.8836 9.48333 45.0902 9.56 45.2902 9.62C45.4969 9.68667 45.7069 9.73333 45.9202 9.76C46.1402 9.79333 46.3769 9.81 46.6302 9.81C46.9969 9.81 47.2669 9.70667 47.4402 9.5C47.6202 9.29333 47.7102 8.98333 47.7102 8.57V8.46C47.7102 8.34667 47.7136 8.23 47.7202 8.11C47.7336 7.99 47.7469 7.88333 47.7602 7.79H47.7102C47.5636 8.07667 47.3736 8.28333 47.1402 8.41C46.9136 8.53667 46.6336 8.6 46.3002 8.6C45.7202 8.6 45.2569 8.35333 44.9102 7.86C44.5702 7.36 44.4002 6.66667 44.4002 5.78C44.4002 5.18 44.4802 4.67 44.6402 4.25C44.8002 3.82333 45.0236 3.5 45.3102 3.28C45.6036 3.05333 45.9436 2.94 46.3302 2.94ZM46.8902 4.15C46.6969 4.15 46.5369 4.21333 46.4102 4.34C46.2836 4.46 46.1869 4.64333 46.1202 4.89C46.0602 5.13 46.0302 5.43333 46.0302 5.8C46.0302 6.34667 46.1002 6.75667 46.2402 7.03C46.3869 7.29667 46.6102 7.43 46.9102 7.43C47.0702 7.43 47.2069 7.40667 47.3202 7.36C47.4402 7.30667 47.5369 7.22333 47.6102 7.11C47.6836 6.99 47.7369 6.83667 47.7702 6.65C47.8102 6.46333 47.8302 6.23667 47.8302 5.97V5.79C47.8302 5.39667 47.8002 5.08 47.7402 4.84C47.6802 4.6 47.5802 4.42667 47.4402 4.32C47.3069 4.20667 47.1236 4.15 46.8902 4.15Z" fill="#F0848D"/>
</svg>
