<svg width="57" height="10" viewBox="0 0 57 10" fill="none" xmlns="http://www.w3.org/2000/svg">
<path d="M1.24951 7.27555V8.54222C1.24951 8.65889 1.34118 8.75055 1.45785 8.75055H2.72451C2.77868 8.75055 2.83284 8.72972 2.87034 8.68805L7.42034 4.14222L5.85785 2.57972L1.31201 7.12555C1.27035 7.16722 1.24951 7.21722 1.24951 7.27555ZM8.62868 2.93389C8.79118 2.77139 8.79118 2.50889 8.62868 2.34639L7.65368 1.37139C7.49118 1.20889 7.22868 1.20889 7.06618 1.37139L6.30368 2.13389L7.86618 3.69639L8.62868 2.93389Z" fill="#F0848D"/>
<path d="M16.1777 2.91211V5.17773H17.0908C17.6019 5.17773 17.9844 5.08333 18.2383 4.89453C18.4922 4.70573 18.6191 4.4209 18.6191 4.04004C18.6191 3.66569 18.4906 3.38411 18.2334 3.19531C17.9795 3.00651 17.5986 2.91211 17.0908 2.91211H16.1777ZM17.1982 7.31152C17.3577 7.31152 17.4733 7.33919 17.5449 7.39453C17.6165 7.44661 17.6523 7.53125 17.6523 7.64844C17.6523 7.77865 17.6182 7.86979 17.5498 7.92188C17.4814 7.97396 17.3512 8 17.1592 8H14.7715C14.6608 8 14.5762 7.9707 14.5176 7.91211C14.459 7.85026 14.4297 7.76237 14.4297 7.64844C14.4297 7.53451 14.4574 7.44987 14.5127 7.39453C14.5713 7.33919 14.6608 7.31152 14.7812 7.31152H15.4111V2.91211H15.0693C14.7829 2.91211 14.6038 2.8877 14.5322 2.83887C14.4639 2.78678 14.4297 2.69401 14.4297 2.56055C14.4297 2.44661 14.459 2.36035 14.5176 2.30176C14.5762 2.23991 14.6608 2.20898 14.7715 2.20898H17.0322C17.8232 2.20898 18.4238 2.36198 18.834 2.66797C19.2441 2.97396 19.4492 3.4248 19.4492 4.02051C19.4492 4.61621 19.2458 5.06543 18.8389 5.36816C18.432 5.6709 17.8298 5.82227 17.0322 5.82227H16.1777V7.31152H17.1982ZM23.0039 7.43848C23.5052 7.43848 23.9154 7.2806 24.2344 6.96484C24.5566 6.64583 24.7178 6.24056 24.7178 5.74902C24.7178 5.25749 24.5566 4.85221 24.2344 4.5332C23.9121 4.21094 23.502 4.0498 23.0039 4.0498C22.5059 4.0498 22.0957 4.21094 21.7734 4.5332C21.4544 4.85221 21.2949 5.25749 21.2949 5.74902C21.2949 6.24382 21.4544 6.64909 21.7734 6.96484C22.0924 7.2806 22.5026 7.43848 23.0039 7.43848ZM25.5674 5.74902C25.5674 6.44564 25.3298 7.0153 24.8545 7.45801C24.3792 7.90072 23.7624 8.12207 23.0039 8.12207C22.2487 8.12207 21.6335 7.90072 21.1582 7.45801C20.6829 7.0153 20.4453 6.44564 20.4453 5.74902C20.4453 5.05241 20.6829 4.48438 21.1582 4.04492C21.6335 3.60221 22.2487 3.38086 23.0039 3.38086C23.7591 3.38086 24.3743 3.60221 24.8496 4.04492C25.3281 4.48763 25.5674 5.05566 25.5674 5.74902ZM26.8809 7.64844V6.7793C26.8809 6.63607 26.9069 6.53353 26.959 6.47168C27.0143 6.40983 27.1022 6.37891 27.2227 6.37891C27.3561 6.37891 27.4619 6.47005 27.54 6.65234C27.5921 6.76302 27.6393 6.84603 27.6816 6.90137C27.8184 7.07715 28.0202 7.21875 28.2871 7.32617C28.554 7.43034 28.8486 7.48242 29.1709 7.48242C29.516 7.48242 29.7926 7.41243 30.001 7.27246C30.2093 7.13249 30.3135 6.94857 30.3135 6.7207C30.3135 6.48958 30.2288 6.3252 30.0596 6.22754C29.8936 6.12988 29.6071 6.08105 29.2002 6.08105H28.9316C28.2676 6.08105 27.7614 5.96549 27.4131 5.73438C27.0648 5.50326 26.8906 5.16797 26.8906 4.72852C26.8906 4.29883 27.0599 3.96517 27.3984 3.72754C27.7402 3.48991 28.2188 3.37109 28.834 3.37109C29.0846 3.37109 29.3402 3.4069 29.6006 3.47852C29.861 3.54688 29.9977 3.58105 30.0107 3.58105C30.0465 3.58105 30.1149 3.55013 30.2158 3.48828C30.3167 3.42318 30.416 3.39062 30.5137 3.39062C30.6243 3.39062 30.7057 3.43132 30.7578 3.5127C30.8132 3.59408 30.8408 3.71615 30.8408 3.87891V4.4502C30.8408 4.62272 30.8148 4.74805 30.7627 4.82617C30.7106 4.90104 30.6276 4.93848 30.5137 4.93848C30.416 4.93848 30.2956 4.85547 30.1523 4.68945C30.0514 4.57552 29.9684 4.48926 29.9033 4.43066C29.7308 4.27116 29.5469 4.15723 29.3516 4.08887C29.1562 4.01725 28.9268 3.98145 28.6631 3.98145C28.3571 3.98145 28.1097 4.0498 27.9209 4.18652C27.7354 4.31999 27.6426 4.49089 27.6426 4.69922C27.6426 4.9043 27.7386 5.05078 27.9307 5.13867C28.1227 5.22656 28.5361 5.27702 29.1709 5.29004C29.848 5.30632 30.3428 5.42513 30.6553 5.64648C30.9678 5.86458 31.124 6.20312 31.124 6.66211C31.124 7.10156 30.9515 7.45312 30.6064 7.7168C30.2614 7.98047 29.7959 8.1123 29.21 8.1123C29.0244 8.1123 28.8177 8.0944 28.5898 8.05859C28.362 8.02604 28.0755 7.96908 27.7305 7.8877C27.6165 7.96257 27.5189 8.0179 27.4375 8.05371C27.3561 8.09277 27.2878 8.1123 27.2324 8.1123C27.1185 8.1123 27.0306 8.07324 26.9688 7.99512C26.9102 7.91374 26.8809 7.79818 26.8809 7.64844ZM36.3486 3.76172C36.5081 3.76172 36.6237 3.78939 36.6953 3.84473C36.7702 3.90007 36.8076 3.98796 36.8076 4.1084C36.8076 4.22233 36.7734 4.30859 36.7051 4.36719C36.6367 4.42253 36.5342 4.4502 36.3975 4.4502H34.4199V6.08105C34.4199 6.61491 34.4883 6.96647 34.625 7.13574C34.765 7.30501 35.0026 7.38965 35.3379 7.38965C35.6341 7.38965 35.9889 7.30339 36.4023 7.13086C36.8158 6.95833 37.0713 6.87207 37.1689 6.87207C37.2601 6.87207 37.3366 6.90462 37.3984 6.96973C37.4635 7.03483 37.4961 7.11458 37.4961 7.20898C37.4961 7.31641 37.4554 7.41081 37.374 7.49219C37.2959 7.57031 37.1608 7.64681 36.9688 7.72168C36.6497 7.84863 36.3617 7.94141 36.1045 8C35.8506 8.05859 35.6113 8.08789 35.3867 8.08789C35.0059 8.08789 34.6852 8.02767 34.4248 7.90723C34.1676 7.78353 33.9756 7.60124 33.8486 7.36035C33.7835 7.24642 33.7363 7.11133 33.707 6.95508C33.681 6.79883 33.668 6.55794 33.668 6.23242V6.08105V4.4502H32.8379C32.7012 4.4502 32.6019 4.42415 32.54 4.37207C32.4782 4.31673 32.4473 4.22884 32.4473 4.1084C32.4473 3.97493 32.4896 3.88379 32.5742 3.83496C32.6589 3.78613 32.8395 3.76172 33.1162 3.76172H33.668V2.76074V2.50195C33.668 2.36198 33.6973 2.25944 33.7559 2.19434C33.8177 2.12598 33.9121 2.0918 34.0391 2.0918C34.1823 2.0918 34.2816 2.13249 34.3369 2.21387C34.3923 2.29525 34.4199 2.48079 34.4199 2.77051V3.76172H36.3486ZM40.5723 2.08203C40.5723 1.73047 40.6032 1.50911 40.665 1.41797C40.7301 1.32682 40.8669 1.28125 41.0752 1.28125C41.277 1.28125 41.4105 1.32031 41.4756 1.39844C41.5407 1.47331 41.5732 1.65397 41.5732 1.94043C41.5732 2.22038 41.5423 2.39453 41.4805 2.46289C41.4219 2.52799 41.2868 2.56055 41.0752 2.56055C40.8669 2.56055 40.7301 2.52962 40.665 2.46777C40.6032 2.40592 40.5723 2.27734 40.5723 2.08203ZM41.4756 7.31152H43.043C43.1699 7.31152 43.2627 7.33919 43.3213 7.39453C43.3831 7.44661 43.4141 7.53125 43.4141 7.64844C43.4141 7.7819 43.3848 7.87467 43.3262 7.92676C43.2708 7.97559 43.1667 8 43.0137 8H39.2246C39.0944 8 38.9967 7.9707 38.9316 7.91211C38.8665 7.85352 38.834 7.76562 38.834 7.64844C38.834 7.53451 38.8682 7.44987 38.9365 7.39453C39.0049 7.33919 39.1074 7.31152 39.2441 7.31152H40.7334V4.18164H39.7812C39.6478 4.18164 39.5452 4.15234 39.4736 4.09375C39.4053 4.0319 39.3711 3.94401 39.3711 3.83008C39.3711 3.71615 39.4036 3.63151 39.4688 3.57617C39.5339 3.51758 39.6315 3.48828 39.7617 3.48828H41.1924C41.2803 3.48828 41.3486 3.50618 41.3975 3.54199C41.4495 3.5778 41.4756 3.62663 41.4756 3.68848V7.31152ZM45.2109 7.31152V4.18164H45.1182C44.8968 4.18164 44.7438 4.1556 44.6592 4.10352C44.5778 4.05143 44.5371 3.96029 44.5371 3.83008C44.5371 3.70964 44.5713 3.62337 44.6396 3.57129C44.708 3.51595 44.8187 3.48828 44.9717 3.48828H45.2012H45.6699C45.7578 3.48828 45.8262 3.50618 45.875 3.54199C45.9238 3.5778 45.9482 3.62663 45.9482 3.68848V4.02051C46.1859 3.79915 46.4202 3.63639 46.6514 3.53223C46.8857 3.4248 47.1283 3.37109 47.3789 3.37109C47.8704 3.37109 48.2562 3.52409 48.5361 3.83008C48.8193 4.13607 48.9609 4.55924 48.9609 5.09961V7.31152H49.1904C49.3532 7.31152 49.4704 7.33919 49.542 7.39453C49.6136 7.44661 49.6494 7.53125 49.6494 7.64844C49.6494 7.77539 49.6104 7.86654 49.5322 7.92188C49.4574 7.97396 49.3223 8 49.127 8H48.0479C47.8395 8 47.7061 7.97559 47.6475 7.92676C47.5889 7.87793 47.5596 7.78516 47.5596 7.64844C47.5596 7.52148 47.5938 7.43359 47.6621 7.38477C47.7305 7.33594 47.859 7.31152 48.0479 7.31152H48.2188V5.28027C48.2188 4.89941 48.1325 4.6097 47.96 4.41113C47.7874 4.20931 47.5368 4.1084 47.208 4.1084C46.876 4.1084 46.583 4.2207 46.3291 4.44531C46.0752 4.66992 45.9482 4.94824 45.9482 5.28027V7.31152H46.1191C46.3145 7.31152 46.4463 7.33594 46.5146 7.38477C46.583 7.43359 46.6172 7.52148 46.6172 7.64844C46.6172 7.78516 46.5879 7.87793 46.5293 7.92676C46.4707 7.97559 46.3275 8 46.0996 8H45.2109H44.9473C44.8138 8 44.7129 7.97233 44.6445 7.91699C44.5794 7.8584 44.5469 7.76888 44.5469 7.64844C44.5469 7.51823 44.5843 7.43034 44.6592 7.38477C44.7373 7.33594 44.887 7.31152 45.1084 7.31152H45.2109ZM52.8965 4.21094C52.4701 4.21094 52.1217 4.34277 51.8516 4.60645C51.5814 4.87012 51.4463 5.21191 51.4463 5.63184C51.4463 6.04525 51.5814 6.38542 51.8516 6.65234C52.1217 6.91602 52.4701 7.04785 52.8965 7.04785C53.3197 7.04785 53.6663 6.91602 53.9365 6.65234C54.21 6.38542 54.3467 6.04525 54.3467 5.63184C54.3467 5.21842 54.21 4.87826 53.9365 4.61133C53.6663 4.3444 53.3197 4.21094 52.8965 4.21094ZM55.0156 7.74121C55.0156 8.19694 54.9928 8.51921 54.9473 8.70801C54.9017 8.90007 54.8236 9.06771 54.7129 9.21094C54.5306 9.45182 54.2751 9.63411 53.9463 9.75781C53.6175 9.88477 53.2301 9.94824 52.7842 9.94824C52.4131 9.94824 52.1413 9.91243 51.9688 9.84082C51.7995 9.76921 51.7148 9.65527 51.7148 9.49902C51.7148 9.39811 51.7555 9.30859 51.8369 9.23047C51.9215 9.1556 52.0208 9.11816 52.1348 9.11816C52.2227 9.11816 52.3577 9.12956 52.54 9.15234C52.7223 9.17839 52.8607 9.19141 52.9551 9.19141C53.4368 9.19141 53.7786 9.08073 53.9805 8.85938C54.1823 8.63802 54.2832 8.25879 54.2832 7.72168V7.13086C54.0846 7.36198 53.8649 7.53125 53.624 7.63867C53.3831 7.74609 53.1064 7.7998 52.7939 7.7998C52.1852 7.7998 51.6807 7.59798 51.2803 7.19434C50.8831 6.78743 50.6846 6.27311 50.6846 5.65137C50.6846 5.02637 50.8896 4.50879 51.2998 4.09863C51.71 3.68522 52.2178 3.47852 52.8232 3.47852C53.0739 3.47852 53.318 3.52572 53.5557 3.62012C53.7965 3.71126 54.0391 3.85124 54.2832 4.04004V3.68848C54.2832 3.62012 54.3044 3.56966 54.3467 3.53711C54.3923 3.50456 54.4622 3.48828 54.5566 3.48828H55.2939C55.4242 3.48828 55.5218 3.51758 55.5869 3.57617C55.652 3.63151 55.6846 3.71615 55.6846 3.83008C55.6846 3.96029 55.6439 4.05143 55.5625 4.10352C55.4811 4.1556 55.3281 4.18164 55.1035 4.18164H55.0156V7.74121Z" fill="#F0848D"/>
</svg>
