<svg width="58" height="10" viewBox="0 0 58 10" fill="none" xmlns="http://www.w3.org/2000/svg">
<g clip-path="url(#clip0_514_1701)">
<path d="M7.96097 3.3333L8.29014 2.60413L9.0193 2.27497C9.1818 2.19997 9.1818 1.9708 9.0193 1.8958L8.29014 1.56663L7.96097 0.833301C7.88597 0.670801 7.6568 0.670801 7.5818 0.833301L7.25264 1.56247L6.5193 1.89163C6.3568 1.96663 6.3568 2.1958 6.5193 2.2708L7.24847 2.59997L7.57764 3.3333C7.65264 3.4958 7.88597 3.4958 7.96097 3.3333ZM4.6443 3.9583L3.9818 2.49997C3.83597 2.17497 3.3693 2.17497 3.22347 2.49997L2.56097 3.9583L1.10264 4.6208C0.777637 4.7708 0.777637 5.2333 1.10264 5.37913L2.56097 6.04163L3.22347 7.49997C3.37347 7.82497 3.83597 7.82497 3.9818 7.49997L4.6443 6.04163L6.10264 5.37913C6.42764 5.22913 6.42764 4.76663 6.10264 4.6208L4.6443 3.9583ZM7.57764 6.66663L7.24847 7.3958L6.5193 7.72497C6.3568 7.79997 6.3568 8.02913 6.5193 8.10413L7.24847 8.4333L7.57764 9.16663C7.65264 9.32913 7.8818 9.32913 7.9568 9.16663L8.28597 8.43747L9.0193 8.1083C9.1818 8.0333 9.1818 7.80413 9.0193 7.72913L8.29014 7.39997L7.96097 6.66663C7.88597 6.50413 7.65264 6.50413 7.57764 6.66663Z" fill="#F0848D"/>
</g>
<path d="M20.32 1.36L18.07 8.5H16.23L14 1.36H15.73L16.83 5.61C16.85 5.68333 16.8833 5.82 16.93 6.02C16.9767 6.21333 17.0233 6.42 17.07 6.64C17.1167 6.85333 17.1467 7.03333 17.16 7.18C17.18 7.03333 17.21 6.85333 17.25 6.64C17.2967 6.42667 17.34 6.22333 17.38 6.03C17.4267 5.83 17.46 5.69 17.48 5.61L18.58 1.36H20.32ZM22.5984 3.04V8.5H20.9984V3.04H22.5984ZM21.8084 0.899999C22.0417 0.899999 22.2417 0.953333 22.4084 1.06C22.575 1.16 22.6584 1.35 22.6584 1.63C22.6584 1.90333 22.575 2.09333 22.4084 2.2C22.2417 2.30667 22.0417 2.36 21.8084 2.36C21.5684 2.36 21.365 2.30667 21.1984 2.2C21.0317 2.09333 20.9484 1.90333 20.9484 1.63C20.9484 1.35 21.0317 1.16 21.1984 1.06C21.365 0.953333 21.5684 0.899999 21.8084 0.899999ZM26.1873 2.94C26.674 2.94 27.094 3.03667 27.4473 3.23C27.8007 3.42333 28.074 3.70333 28.2673 4.07C28.4607 4.43667 28.5573 4.88667 28.5573 5.42V6.14H25.3073C25.3207 6.56 25.4273 6.89 25.6273 7.13C25.834 7.37 26.1273 7.49 26.5073 7.49C26.8407 7.49 27.1407 7.45667 27.4073 7.39C27.6807 7.31667 27.9607 7.20667 28.2473 7.06V8.21C28.0007 8.34333 27.7307 8.44 27.4373 8.5C27.1507 8.56667 26.794 8.6 26.3673 8.6C25.8473 8.6 25.384 8.5 24.9773 8.3C24.5773 8.09333 24.2607 7.78333 24.0273 7.37C23.8007 6.95667 23.6873 6.43667 23.6873 5.81C23.6873 5.17 23.7907 4.64 23.9973 4.22C24.2107 3.79333 24.504 3.47333 24.8773 3.26C25.2573 3.04667 25.694 2.94 26.1873 2.94ZM26.2173 4C25.9773 4 25.7773 4.09333 25.6173 4.28C25.4573 4.46667 25.364 4.75667 25.3373 5.15H27.0873C27.0873 4.93 27.054 4.73333 26.9873 4.56C26.9207 4.38667 26.824 4.25 26.6973 4.15C26.5707 4.05 26.4107 4 26.2173 4ZM33.1754 5.62C33.1554 5.50667 33.1321 5.39333 33.1054 5.28C33.0854 5.16 33.0621 5.04333 33.0354 4.93C33.0154 4.81667 32.9987 4.70667 32.9854 4.6C32.9721 4.48667 32.9587 4.38 32.9454 4.28H32.9154C32.9087 4.38 32.8954 4.48667 32.8754 4.6C32.8621 4.71333 32.8454 4.83 32.8254 4.95C32.8054 5.06333 32.7821 5.18 32.7554 5.3C32.7354 5.42 32.7121 5.54 32.6854 5.66L32.0554 8.5H30.1854L28.8754 3.04H30.4354L30.9554 5.83C30.9887 5.99667 31.0187 6.16667 31.0454 6.34C31.0721 6.50667 31.0954 6.67 31.1154 6.83C31.1421 6.98333 31.1587 7.12333 31.1654 7.25H31.2054C31.2187 7.15667 31.2354 7.04333 31.2554 6.91C31.2754 6.77667 31.2954 6.64333 31.3154 6.51C31.3421 6.37 31.3654 6.24333 31.3854 6.13C31.4054 6.01667 31.4221 5.93333 31.4354 5.88L32.0654 3.04H33.8054L34.4154 5.87C34.4354 5.96333 34.4587 6.09667 34.4854 6.27C34.5121 6.43667 34.5354 6.61 34.5554 6.79C34.5821 6.97 34.5987 7.12333 34.6054 7.25H34.6354C34.6487 7.12333 34.6654 6.98333 34.6854 6.83C34.7121 6.67667 34.7387 6.51333 34.7654 6.34C34.7987 6.16667 34.8321 5.99667 34.8654 5.83L35.4454 3.04H36.9654L35.6154 8.5H33.7554L33.1754 5.62ZM40.0864 1.36C40.9464 1.36 41.5797 1.56 41.9864 1.96C42.3997 2.35333 42.6064 2.89667 42.6064 3.59C42.6064 3.90333 42.5631 4.20333 42.4764 4.49C42.3897 4.77 42.2464 5.02333 42.0464 5.25C41.8464 5.47 41.5797 5.64333 41.2464 5.77C40.9197 5.89667 40.5164 5.96 40.0364 5.96H39.4764V8.5H37.8564V1.36H40.0864ZM40.0364 2.6H39.4764V4.72H39.8864C40.0997 4.72 40.2897 4.68333 40.4564 4.61C40.6231 4.53667 40.7531 4.42 40.8464 4.26C40.9397 4.1 40.9864 3.89333 40.9864 3.64C40.9864 3.28667 40.9064 3.02667 40.7464 2.86C40.5931 2.68667 40.3564 2.6 40.0364 2.6ZM48.4841 5.76C48.4841 6.21333 48.4241 6.61667 48.3041 6.97C48.1908 7.32333 48.0241 7.62333 47.8041 7.87C47.5841 8.11 47.3141 8.29333 46.9941 8.42C46.6808 8.54 46.3275 8.6 45.9341 8.6C45.5675 8.6 45.2275 8.54 44.9141 8.42C44.6008 8.29333 44.3308 8.11 44.1041 7.87C43.8841 7.62333 43.7108 7.32333 43.5841 6.97C43.4641 6.61667 43.4041 6.21333 43.4041 5.76C43.4041 5.15333 43.5075 4.64333 43.7141 4.23C43.9208 3.81 44.2141 3.49 44.5941 3.27C44.9741 3.05 45.4308 2.94 45.9641 2.94C46.4575 2.94 46.8908 3.05 47.2641 3.27C47.6441 3.49 47.9408 3.81 48.1541 4.23C48.3741 4.64333 48.4841 5.15333 48.4841 5.76ZM45.0341 5.76C45.0341 6.12 45.0641 6.42333 45.1241 6.67C45.1908 6.91 45.2908 7.09333 45.4241 7.22C45.5641 7.34 45.7408 7.4 45.9541 7.4C46.1741 7.4 46.3475 7.34 46.4741 7.22C46.6075 7.09333 46.7041 6.91 46.7641 6.67C46.8241 6.42333 46.8541 6.12 46.8541 5.76C46.8541 5.4 46.8241 5.1 46.7641 4.86C46.7041 4.62 46.6041 4.44 46.4641 4.32C46.3308 4.2 46.1575 4.14 45.9441 4.14C45.6175 4.14 45.3841 4.27667 45.2441 4.55C45.1041 4.81667 45.0341 5.22 45.0341 5.76ZM53.2926 6.88C53.2926 7.24667 53.2126 7.56 53.0526 7.82C52.8992 8.07333 52.6626 8.26667 52.3426 8.4C52.0226 8.53333 51.6092 8.6 51.1026 8.6C50.7359 8.6 50.4159 8.57333 50.1426 8.52C49.8692 8.47333 49.5926 8.39333 49.3126 8.28V7.05C49.6192 7.18333 49.9359 7.29333 50.2626 7.38C50.5892 7.46667 50.8626 7.51 51.0826 7.51C51.3226 7.51 51.4926 7.46667 51.5926 7.38C51.6992 7.29333 51.7526 7.18 51.7526 7.04C51.7526 6.94667 51.7259 6.86333 51.6726 6.79C51.6192 6.71667 51.5126 6.63333 51.3526 6.54C51.1926 6.44667 50.9559 6.32667 50.6426 6.18C50.3359 6.03333 50.0826 5.89 49.8826 5.75C49.6892 5.60333 49.5426 5.43 49.4426 5.23C49.3492 5.02333 49.3026 4.76667 49.3026 4.46C49.3026 3.95333 49.4926 3.57333 49.8726 3.32C50.2592 3.06667 50.7659 2.94 51.3926 2.94C51.7259 2.94 52.0392 2.97333 52.3326 3.04C52.6259 3.10667 52.9292 3.21667 53.2426 3.37L52.7926 4.44C52.6192 4.36 52.4492 4.29 52.2826 4.23C52.1159 4.17 51.9559 4.12333 51.8026 4.09C51.6559 4.05667 51.5159 4.04 51.3826 4.04C51.2092 4.04 51.0759 4.07 50.9826 4.13C50.8959 4.19 50.8526 4.28 50.8526 4.4C50.8526 4.48667 50.8792 4.56667 50.9326 4.64C50.9859 4.70667 51.0892 4.78333 51.2426 4.87C51.3959 4.95 51.6192 5.05333 51.9126 5.18C52.2126 5.30667 52.4626 5.44 52.6626 5.58C52.8692 5.71333 53.0259 5.88333 53.1326 6.09C53.2392 6.29 53.2926 6.55333 53.2926 6.88ZM56.6882 7.41C56.8482 7.41 56.9949 7.39333 57.1282 7.36C57.2682 7.32667 57.4115 7.28667 57.5582 7.24V8.35C57.3915 8.41667 57.1949 8.47333 56.9682 8.52C56.7482 8.57333 56.4882 8.6 56.1882 8.6C55.8682 8.6 55.5815 8.54667 55.3282 8.44C55.0815 8.33333 54.8882 8.15 54.7482 7.89C54.6082 7.62333 54.5382 7.25667 54.5382 6.79V4.16H53.8882V3.53L54.6682 3.03L55.1082 1.88H56.1382V3.04H57.4982V4.16H56.1382V6.79C56.1382 6.99667 56.1882 7.15333 56.2882 7.26C56.3882 7.36 56.5215 7.41 56.6882 7.41Z" fill="#F0848D"/>
<defs>
<clipPath id="clip0_514_1701">
<rect width="10" height="10" fill="white"/>
</clipPath>
</defs>
</svg>
