<svg width="63" height="10" viewBox="0 0 63 10" fill="none" xmlns="http://www.w3.org/2000/svg">
<g clip-path="url(#clip0_477_1323)">
<path d="M7.96097 3.3333L8.29014 2.60413L9.0193 2.27497C9.1818 2.19997 9.1818 1.9708 9.0193 1.8958L8.29014 1.56663L7.96097 0.833301C7.88597 0.670801 7.6568 0.670801 7.5818 0.833301L7.25264 1.56247L6.5193 1.89163C6.3568 1.96663 6.3568 2.1958 6.5193 2.2708L7.24847 2.59997L7.57764 3.3333C7.65264 3.4958 7.88597 3.4958 7.96097 3.3333ZM4.6443 3.9583L3.9818 2.49997C3.83597 2.17497 3.3693 2.17497 3.22347 2.49997L2.56097 3.9583L1.10264 4.6208C0.777637 4.7708 0.777637 5.2333 1.10264 5.37913L2.56097 6.04163L3.22347 7.49997C3.37347 7.82497 3.83597 7.82497 3.9818 7.49997L4.6443 6.04163L6.10264 5.37913C6.42764 5.22913 6.42764 4.76663 6.10264 4.6208L4.6443 3.9583ZM7.57764 6.66663L7.24847 7.3958L6.5193 7.72497C6.3568 7.79997 6.3568 8.02913 6.5193 8.10413L7.24847 8.4333L7.57764 9.16663C7.65264 9.32913 7.8818 9.32913 7.9568 9.16663L8.28597 8.43747L9.0193 8.1083C9.1818 8.0333 9.1818 7.80413 9.0193 7.72913L8.29014 7.39997L7.96097 6.66663C7.88597 6.50413 7.65264 6.50413 7.57764 6.66663Z" fill="#F0848D"/>
</g>
<path d="M14.5811 2.91211H14.5176C14.3548 2.91211 14.2393 2.88607 14.1709 2.83398C14.1025 2.77865 14.0684 2.6875 14.0684 2.56055C14.0684 2.44661 14.0977 2.36035 14.1562 2.30176C14.2148 2.23991 14.2995 2.20898 14.4102 2.20898H15.8896C16.0817 2.20898 16.2103 2.23503 16.2754 2.28711C16.3438 2.33919 16.3779 2.43034 16.3779 2.56055C16.3779 2.68099 16.3421 2.77051 16.2705 2.8291C16.1989 2.88444 16.085 2.91211 15.9287 2.91211H15.3916L17.0518 7.16992L18.668 2.91211H18.0186C17.8656 2.91211 17.7516 2.88444 17.6768 2.8291C17.6051 2.77051 17.5693 2.68099 17.5693 2.56055C17.5693 2.43034 17.6035 2.33919 17.6719 2.28711C17.7402 2.23503 17.8688 2.20898 18.0576 2.20898H19.5908C19.7015 2.20898 19.7845 2.23991 19.8398 2.30176C19.8984 2.36035 19.9277 2.44661 19.9277 2.56055C19.9277 2.6875 19.8936 2.77865 19.8252 2.83398C19.7568 2.88607 19.638 2.91211 19.4688 2.91211H19.4102L17.6523 7.51172C17.5514 7.75586 17.4717 7.90885 17.4131 7.9707C17.3545 8.0293 17.2796 8.05859 17.1885 8.05859H16.9102C16.6953 8.05859 16.5212 7.88607 16.3877 7.54102L16.3779 7.51172L14.5811 2.91211ZM22.5547 2.08203C22.5547 1.73047 22.5856 1.50911 22.6475 1.41797C22.7126 1.32682 22.8493 1.28125 23.0576 1.28125C23.2594 1.28125 23.3929 1.32031 23.458 1.39844C23.5231 1.47331 23.5557 1.65397 23.5557 1.94043C23.5557 2.22038 23.5247 2.39453 23.4629 2.46289C23.4043 2.52799 23.2692 2.56055 23.0576 2.56055C22.8493 2.56055 22.7126 2.52962 22.6475 2.46777C22.5856 2.40592 22.5547 2.27734 22.5547 2.08203ZM23.458 7.31152H25.0254C25.1523 7.31152 25.2451 7.33919 25.3037 7.39453C25.3656 7.44661 25.3965 7.53125 25.3965 7.64844C25.3965 7.7819 25.3672 7.87467 25.3086 7.92676C25.2533 7.97559 25.1491 8 24.9961 8H21.207C21.0768 8 20.9792 7.9707 20.9141 7.91211C20.849 7.85352 20.8164 7.76562 20.8164 7.64844C20.8164 7.53451 20.8506 7.44987 20.9189 7.39453C20.9873 7.33919 21.0898 7.31152 21.2266 7.31152H22.7158V4.18164H21.7637C21.6302 4.18164 21.5277 4.15234 21.4561 4.09375C21.3877 4.0319 21.3535 3.94401 21.3535 3.83008C21.3535 3.71615 21.3861 3.63151 21.4512 3.57617C21.5163 3.51758 21.6139 3.48828 21.7441 3.48828H23.1748C23.2627 3.48828 23.3311 3.50618 23.3799 3.54199C23.432 3.5778 23.458 3.62663 23.458 3.68848V7.31152ZM27.3594 5.95898C27.3854 6.42773 27.5433 6.79069 27.833 7.04785C28.126 7.30176 28.5247 7.42871 29.0293 7.42871C29.4102 7.42871 29.8252 7.3278 30.2744 7.12598C30.7236 6.9209 30.9954 6.81836 31.0898 6.81836C31.1875 6.81836 31.2689 6.84928 31.334 6.91113C31.3991 6.97298 31.4316 7.04948 31.4316 7.14062C31.4316 7.23503 31.3975 7.32129 31.3291 7.39941C31.2607 7.47754 31.1517 7.55404 31.002 7.62891C30.6764 7.78841 30.3395 7.91048 29.9912 7.99512C29.6462 8.07975 29.3027 8.12207 28.9609 8.12207C28.2188 8.12207 27.6247 7.90885 27.1787 7.48242C26.7327 7.05273 26.5098 6.4847 26.5098 5.77832C26.5098 5.05892 26.7458 4.47624 27.2178 4.03027C27.6898 3.58431 28.305 3.36133 29.0635 3.36133C29.7503 3.36133 30.32 3.56966 30.7725 3.98633C31.2249 4.40299 31.4512 4.90755 31.4512 5.5C31.4512 5.68229 31.4121 5.80436 31.334 5.86621C31.2591 5.92806 31.0524 5.95898 30.7139 5.95898H30.6406H27.3594ZM27.3838 5.31934H30.5625C30.5137 4.93197 30.3509 4.62109 30.0742 4.38672C29.8008 4.14909 29.4639 4.03027 29.0635 4.03027C28.6305 4.03027 28.266 4.14421 27.9697 4.37207C27.6735 4.59993 27.4782 4.91569 27.3838 5.31934ZM34.9863 5.51953L34.3564 7.83887C34.3239 7.96257 34.2751 8.04883 34.21 8.09766C34.1449 8.14648 34.0472 8.1709 33.917 8.1709C33.7998 8.1709 33.7087 8.13997 33.6436 8.07812C33.5785 8.01628 33.5199 7.90397 33.4678 7.74121L32.3496 4.18164H32.3057C32.1689 4.18164 32.0713 4.1556 32.0127 4.10352C31.9508 4.04818 31.9199 3.95703 31.9199 3.83008C31.9199 3.7194 31.9525 3.63477 32.0176 3.57617C32.0794 3.51758 32.1722 3.48828 32.2959 3.48828H33.5996C33.7754 3.48828 33.8942 3.51432 33.9561 3.56641C34.0179 3.61523 34.0488 3.70312 34.0488 3.83008C34.0488 3.9082 34.0309 3.97656 33.9951 4.03516C33.9593 4.09049 33.9137 4.12467 33.8584 4.1377C33.8031 4.15397 33.738 4.16536 33.6631 4.17188C33.5915 4.17839 33.5036 4.18164 33.3994 4.18164H33.1162L33.9561 7.11133L34.5859 4.98242C34.6217 4.85872 34.6722 4.77246 34.7373 4.72363C34.8024 4.6748 34.8984 4.65039 35.0254 4.65039C35.1426 4.65039 35.2337 4.68294 35.2988 4.74805C35.3672 4.8099 35.4274 4.92057 35.4795 5.08008L36.0898 7.11133L36.8955 4.18164H36.7783H36.5684C36.3438 4.18164 36.1924 4.15723 36.1143 4.1084C36.0361 4.05632 35.9971 3.96354 35.9971 3.83008C35.9971 3.69987 36.0264 3.61035 36.085 3.56152C36.1436 3.5127 36.2575 3.48828 36.4268 3.48828H37.7354C37.8363 3.48828 37.9111 3.51758 37.96 3.57617C38.012 3.63477 38.0381 3.7194 38.0381 3.83008C38.0381 3.95378 38.0088 4.04167 37.9502 4.09375C37.8916 4.14583 37.7809 4.17513 37.6182 4.18164L36.5195 7.83887C36.4772 7.96257 36.4235 8.04883 36.3584 8.09766C36.2965 8.14648 36.2021 8.1709 36.0752 8.1709C35.958 8.1709 35.8652 8.13835 35.7969 8.07324C35.7285 8.01139 35.6715 7.90072 35.626 7.74121L34.9863 5.51953ZM40.2012 2.91211V5.17773H41.1143C41.6253 5.17773 42.0078 5.08333 42.2617 4.89453C42.5156 4.70573 42.6426 4.4209 42.6426 4.04004C42.6426 3.66569 42.514 3.38411 42.2568 3.19531C42.0029 3.00651 41.6221 2.91211 41.1143 2.91211H40.2012ZM41.2217 7.31152C41.3812 7.31152 41.4967 7.33919 41.5684 7.39453C41.64 7.44661 41.6758 7.53125 41.6758 7.64844C41.6758 7.77865 41.6416 7.86979 41.5732 7.92188C41.5049 7.97396 41.3747 8 41.1826 8H38.7949C38.6842 8 38.5996 7.9707 38.541 7.91211C38.4824 7.85026 38.4531 7.76237 38.4531 7.64844C38.4531 7.53451 38.4808 7.44987 38.5361 7.39453C38.5947 7.33919 38.6842 7.31152 38.8047 7.31152H39.4346V2.91211H39.0928C38.8063 2.91211 38.6273 2.8877 38.5557 2.83887C38.4873 2.78678 38.4531 2.69401 38.4531 2.56055C38.4531 2.44661 38.4824 2.36035 38.541 2.30176C38.5996 2.23991 38.6842 2.20898 38.7949 2.20898H41.0557C41.8467 2.20898 42.4473 2.36198 42.8574 2.66797C43.2676 2.97396 43.4727 3.4248 43.4727 4.02051C43.4727 4.61621 43.2692 5.06543 42.8623 5.36816C42.4554 5.6709 41.8532 5.82227 41.0557 5.82227H40.2012V7.31152H41.2217ZM47.0273 7.43848C47.5286 7.43848 47.9388 7.2806 48.2578 6.96484C48.5801 6.64583 48.7412 6.24056 48.7412 5.74902C48.7412 5.25749 48.5801 4.85221 48.2578 4.5332C47.9355 4.21094 47.5254 4.0498 47.0273 4.0498C46.5293 4.0498 46.1191 4.21094 45.7969 4.5332C45.4779 4.85221 45.3184 5.25749 45.3184 5.74902C45.3184 6.24382 45.4779 6.64909 45.7969 6.96484C46.1159 7.2806 46.526 7.43848 47.0273 7.43848ZM49.5908 5.74902C49.5908 6.44564 49.3532 7.0153 48.8779 7.45801C48.4027 7.90072 47.7858 8.12207 47.0273 8.12207C46.2721 8.12207 45.6569 7.90072 45.1816 7.45801C44.7064 7.0153 44.4688 6.44564 44.4688 5.74902C44.4688 5.05241 44.7064 4.48438 45.1816 4.04492C45.6569 3.60221 46.2721 3.38086 47.0273 3.38086C47.7826 3.38086 48.3978 3.60221 48.873 4.04492C49.3516 4.48763 49.5908 5.05566 49.5908 5.74902ZM50.9043 7.64844V6.7793C50.9043 6.63607 50.9303 6.53353 50.9824 6.47168C51.0378 6.40983 51.1257 6.37891 51.2461 6.37891C51.3796 6.37891 51.4854 6.47005 51.5635 6.65234C51.6156 6.76302 51.6628 6.84603 51.7051 6.90137C51.8418 7.07715 52.0436 7.21875 52.3105 7.32617C52.5775 7.43034 52.8721 7.48242 53.1943 7.48242C53.5394 7.48242 53.8161 7.41243 54.0244 7.27246C54.2327 7.13249 54.3369 6.94857 54.3369 6.7207C54.3369 6.48958 54.2523 6.3252 54.083 6.22754C53.917 6.12988 53.6305 6.08105 53.2236 6.08105H52.9551C52.291 6.08105 51.7848 5.96549 51.4365 5.73438C51.0882 5.50326 50.9141 5.16797 50.9141 4.72852C50.9141 4.29883 51.0833 3.96517 51.4219 3.72754C51.7637 3.48991 52.2422 3.37109 52.8574 3.37109C53.1081 3.37109 53.3636 3.4069 53.624 3.47852C53.8844 3.54688 54.0212 3.58105 54.0342 3.58105C54.07 3.58105 54.1383 3.55013 54.2393 3.48828C54.3402 3.42318 54.4395 3.39062 54.5371 3.39062C54.6478 3.39062 54.7292 3.43132 54.7812 3.5127C54.8366 3.59408 54.8643 3.71615 54.8643 3.87891V4.4502C54.8643 4.62272 54.8382 4.74805 54.7861 4.82617C54.734 4.90104 54.651 4.93848 54.5371 4.93848C54.4395 4.93848 54.319 4.85547 54.1758 4.68945C54.0749 4.57552 53.9919 4.48926 53.9268 4.43066C53.7542 4.27116 53.5703 4.15723 53.375 4.08887C53.1797 4.01725 52.9502 3.98145 52.6865 3.98145C52.3805 3.98145 52.1331 4.0498 51.9443 4.18652C51.7588 4.31999 51.666 4.49089 51.666 4.69922C51.666 4.9043 51.762 5.05078 51.9541 5.13867C52.1462 5.22656 52.5596 5.27702 53.1943 5.29004C53.8714 5.30632 54.3662 5.42513 54.6787 5.64648C54.9912 5.86458 55.1475 6.20312 55.1475 6.66211C55.1475 7.10156 54.9749 7.45312 54.6299 7.7168C54.2848 7.98047 53.8193 8.1123 53.2334 8.1123C53.0479 8.1123 52.8411 8.0944 52.6133 8.05859C52.3854 8.02604 52.099 7.96908 51.7539 7.8877C51.64 7.96257 51.5423 8.0179 51.4609 8.05371C51.3796 8.09277 51.3112 8.1123 51.2559 8.1123C51.1419 8.1123 51.054 8.07324 50.9922 7.99512C50.9336 7.91374 50.9043 7.79818 50.9043 7.64844ZM60.3721 3.76172C60.5316 3.76172 60.6471 3.78939 60.7188 3.84473C60.7936 3.90007 60.8311 3.98796 60.8311 4.1084C60.8311 4.22233 60.7969 4.30859 60.7285 4.36719C60.6602 4.42253 60.5576 4.4502 60.4209 4.4502H58.4434V6.08105C58.4434 6.61491 58.5117 6.96647 58.6484 7.13574C58.7884 7.30501 59.026 7.38965 59.3613 7.38965C59.6576 7.38965 60.0124 7.30339 60.4258 7.13086C60.8392 6.95833 61.0947 6.87207 61.1924 6.87207C61.2835 6.87207 61.36 6.90462 61.4219 6.96973C61.487 7.03483 61.5195 7.11458 61.5195 7.20898C61.5195 7.31641 61.4788 7.41081 61.3975 7.49219C61.3193 7.57031 61.1842 7.64681 60.9922 7.72168C60.6732 7.84863 60.3851 7.94141 60.1279 8C59.874 8.05859 59.6348 8.08789 59.4102 8.08789C59.0293 8.08789 58.7087 8.02767 58.4482 7.90723C58.1911 7.78353 57.999 7.60124 57.8721 7.36035C57.807 7.24642 57.7598 7.11133 57.7305 6.95508C57.7044 6.79883 57.6914 6.55794 57.6914 6.23242V6.08105V4.4502H56.8613C56.7246 4.4502 56.6253 4.42415 56.5635 4.37207C56.5016 4.31673 56.4707 4.22884 56.4707 4.1084C56.4707 3.97493 56.513 3.88379 56.5977 3.83496C56.6823 3.78613 56.863 3.76172 57.1396 3.76172H57.6914V2.76074V2.50195C57.6914 2.36198 57.7207 2.25944 57.7793 2.19434C57.8411 2.12598 57.9355 2.0918 58.0625 2.0918C58.2057 2.0918 58.305 2.13249 58.3604 2.21387C58.4157 2.29525 58.4434 2.48079 58.4434 2.77051V3.76172H60.3721Z" fill="#F0848D"/>
<defs>
<clipPath id="clip0_477_1323">
<rect width="10" height="10" fill="white"/>
</clipPath>
</defs>
</svg>
